<?xml version="1.0" encoding="utf-8"?>
<!-- Generator: Adobe Illustrator 25.1.0, SVG Export Plug-In . SVG Version: 6.00 Build 0)  -->
<svg version="1.1"
	 id="Layer_1" shape-rendering="geometricPrecision" image-rendering="optimizeQuality" text-rendering="geometricPrecision"
	 xmlns="http://www.w3.org/2000/svg" xmlns:xlink="http://www.w3.org/1999/xlink" x="0px" y="0px" viewBox="0 0 50.1 67.7"
	 style="enable-background:new 0 0 50.1 67.7;" xml:space="preserve">
<style type="text/css">
	.st0{fill-rule:evenodd;clip-rule:evenodd;fill:#B82F2F;}
	.st1{fill-rule:evenodd;clip-rule:evenodd;fill:#532512;}
	.st2{fill:#FFFFFF;}
</style>
<path class="st0" d="M2,0h34l14.1,15.5v49.9c0,1.2-0.9,2.2-2,2.2H2c-1.1,0-2-1.1-2-2.2V2.2C0,0.9,1,0,2,0z"/>
<path class="st1" d="M50.1,15.5H38c-1.1,0-2-1.1-2-2.2V0L50.1,15.5z"/>
<path class="st2" d="M10.4,36c0.4,0,0.7,0.1,0.9,0.4c0.2,0.2,0.4,0.6,0.4,0.9s-0.1,0.7-0.4,0.9c-0.2,0.2-0.6,0.4-0.9,0.4
	s-0.7-0.1-0.9-0.4C9.3,38,9,37.6,9,37.3s0.2-0.7,0.5-0.9C9.7,36.1,10.1,36,10.4,36z M16.3,29.2v1.1c0.5-0.5,0.8-0.8,1.4-0.9
	c0.5-0.2,0.9-0.4,1.5-0.4c1.2,0,2.2,0.5,3,1.4c0.8,0.8,1.3,2,1.3,3.4s-0.5,2.6-1.3,3.5c-0.9,0.8-2,1.3-3.2,1.3c-0.5,0-0.9,0-1.4-0.2
	c-0.5-0.2-0.9-0.5-1.4-0.9v4.3H14V29.2H16.3z M18.8,31.1c-0.7,0-1.4,0.2-1.9,0.7c-0.5,0.6-0.7,1.2-0.7,2s0.2,1.5,0.7,2
	c0.5,0.5,1.2,0.7,1.9,0.7s1.3-0.2,1.8-0.7c0.5-0.6,0.7-1.2,0.7-2s-0.2-1.4-0.7-2C20.1,31.3,19.5,31.1,18.8,31.1z M32.3,25.7h2.3
	v12.7h-2.3v-0.9c-0.5,0.5-0.9,0.7-1.3,0.9c-0.5,0.2-1.1,0.2-1.5,0.2c-1.2,0-2.2-0.5-3-1.3c-0.9-0.9-1.4-2.1-1.4-3.5s0.5-2.6,1.3-3.4
	c0.8-0.9,1.9-1.4,3-1.4c0.6,0,1.2,0.1,1.6,0.4c0.5,0.1,0.9,0.5,1.3,0.9V25.7z M29.8,31.1c-0.7,0-1.3,0.2-1.8,0.7
	c-0.5,0.6-0.7,1.2-0.7,2s0.2,1.4,0.7,2c0.5,0.5,1.1,0.7,1.8,0.7c0.8,0,1.4-0.2,1.9-0.7c0.5-0.5,0.7-1.2,0.7-2s-0.2-1.4-0.7-2
	C31.2,31.3,30.6,31.1,29.8,31.1z M35.8,29.2h0.8c0-1.2,0-1.9,0.1-2.1c0-0.6,0.2-0.9,0.6-1.3c0.4-0.2,0.9-0.4,1.5-0.4
	c0.5,0,1.1,0.1,1.6,0.2v1.8c-0.4,0-0.6-0.1-0.8-0.1c-0.2,0-0.5,0.1-0.6,0.2c-0.1,0-0.1,0.2-0.1,0.5v1.2h1.4v2h-1.4v7.2h-2.3v-7.2
	h-0.8V29.2z"/>
</svg>
